<mxfile host="Electron" modified="2023-10-17T18:11:51.856Z" agent="Mozilla/5.0 (X11; Linux x86_64) AppleWebKit/537.36 (KHTML, like Gecko) draw.io/21.6.5 Chrome/114.0.5735.243 Electron/25.3.1 Safari/537.36" etag="T43eInM7JyWDm2zsEzC3" version="21.6.5" type="device" pages="2">
  <diagram name="ControlBox" id="hjWaL9JLHjjvLe_wn_VD">
    <mxGraphModel dx="1364" dy="843" grid="1" gridSize="10" guides="1" tooltips="1" connect="1" arrows="1" fold="1" page="1" pageScale="1" pageWidth="850" pageHeight="1100" math="0" shadow="0">
      <root>
        <mxCell id="0" />
        <mxCell id="1" parent="0" />
        <mxCell id="poIPKRVquE_DcnDDjIoq-32" value="" style="rounded=0;whiteSpace=wrap;html=1;fillColor=#f8cecc;strokeColor=#b85450;fontStyle=1" parent="1" vertex="1">
          <mxGeometry x="235" y="80" width="380" height="60" as="geometry" />
        </mxCell>
        <mxCell id="poIPKRVquE_DcnDDjIoq-31" value="" style="rounded=0;whiteSpace=wrap;html=1;fillColor=#ffe6cc;strokeColor=#d79b00;fontStyle=1" parent="1" vertex="1">
          <mxGeometry x="235" y="140" width="380" height="60" as="geometry" />
        </mxCell>
        <mxCell id="poIPKRVquE_DcnDDjIoq-30" value="" style="rounded=0;whiteSpace=wrap;html=1;fillColor=#ffe6cc;strokeColor=#d79b00;fontStyle=1" parent="1" vertex="1">
          <mxGeometry x="235" y="140" width="380" height="60" as="geometry" />
        </mxCell>
        <mxCell id="poIPKRVquE_DcnDDjIoq-29" value="" style="rounded=0;whiteSpace=wrap;html=1;fillColor=#fff2cc;strokeColor=#d6b656;" parent="1" vertex="1">
          <mxGeometry x="235" y="200" width="380" height="60" as="geometry" />
        </mxCell>
        <mxCell id="poIPKRVquE_DcnDDjIoq-28" value="" style="rounded=0;whiteSpace=wrap;html=1;fillColor=#d5e8d4;strokeColor=#82b366;" parent="1" vertex="1">
          <mxGeometry x="235" y="260" width="380" height="60" as="geometry" />
        </mxCell>
        <mxCell id="poIPKRVquE_DcnDDjIoq-8" value="t_LoRaNetwork" style="rounded=1;whiteSpace=wrap;html=1;fillColor=#dae8fc;strokeColor=#6c8ebf;" parent="1" vertex="1">
          <mxGeometry x="245.00333333333322" y="150.00222222222214" width="120" height="40" as="geometry" />
        </mxCell>
        <mxCell id="poIPKRVquE_DcnDDjIoq-9" value="t_LoRaMAC" style="rounded=1;whiteSpace=wrap;html=1;fillColor=#dae8fc;strokeColor=#6c8ebf;" parent="1" vertex="1">
          <mxGeometry x="365.00333333333333" y="90.00222222222214" width="120" height="40" as="geometry" />
        </mxCell>
        <mxCell id="poIPKRVquE_DcnDDjIoq-13" value="t_StationHandler0" style="rounded=1;whiteSpace=wrap;html=1;fillColor=#dae8fc;strokeColor=#6c8ebf;" parent="1" vertex="1">
          <mxGeometry x="245.00333333333322" y="210.00222222222214" width="120" height="40" as="geometry" />
        </mxCell>
        <mxCell id="poIPKRVquE_DcnDDjIoq-16" value="t_StationHandlerN" style="rounded=1;whiteSpace=wrap;html=1;fillColor=#dae8fc;strokeColor=#6c8ebf;" parent="1" vertex="1">
          <mxGeometry x="485.0033333333332" y="210.00222222222214" width="120" height="40" as="geometry" />
        </mxCell>
        <mxCell id="poIPKRVquE_DcnDDjIoq-23" value="t_StationManager" style="rounded=1;whiteSpace=wrap;html=1;fillColor=#dae8fc;strokeColor=#6c8ebf;" parent="1" vertex="1">
          <mxGeometry x="485.00333333333333" y="150.00222222222214" width="120" height="40" as="geometry" />
        </mxCell>
        <mxCell id="poIPKRVquE_DcnDDjIoq-27" value="t_GUI" style="rounded=1;whiteSpace=wrap;html=1;fillColor=#dae8fc;strokeColor=#6c8ebf;" parent="1" vertex="1">
          <mxGeometry x="365.00333333333333" y="270.00222222222214" width="120" height="40" as="geometry" />
        </mxCell>
        <mxCell id="poIPKRVquE_DcnDDjIoq-33" value="" style="shape=flexArrow;endArrow=classic;html=1;rounded=0;" parent="1" edge="1">
          <mxGeometry width="50" height="50" relative="1" as="geometry">
            <mxPoint x="640" y="320" as="sourcePoint" />
            <mxPoint x="640" y="80" as="targetPoint" />
          </mxGeometry>
        </mxCell>
        <mxCell id="poIPKRVquE_DcnDDjIoq-34" value="Higher" style="text;html=1;align=center;verticalAlign=middle;resizable=0;points=[];autosize=1;strokeColor=none;fillColor=none;" parent="1" vertex="1">
          <mxGeometry x="660" y="80" width="60" height="30" as="geometry" />
        </mxCell>
        <mxCell id="poIPKRVquE_DcnDDjIoq-35" value="Lower" style="text;html=1;align=center;verticalAlign=middle;resizable=0;points=[];autosize=1;strokeColor=none;fillColor=none;" parent="1" vertex="1">
          <mxGeometry x="660" y="290" width="60" height="30" as="geometry" />
        </mxCell>
        <mxCell id="poIPKRVquE_DcnDDjIoq-37" value="" style="ellipse;whiteSpace=wrap;html=1;fillColor=#000000;" parent="1" vertex="1">
          <mxGeometry x="380" y="220" width="20" height="20" as="geometry" />
        </mxCell>
        <mxCell id="poIPKRVquE_DcnDDjIoq-38" value="" style="ellipse;whiteSpace=wrap;html=1;fillColor=#000000;" parent="1" vertex="1">
          <mxGeometry x="415" y="220" width="20" height="20" as="geometry" />
        </mxCell>
        <mxCell id="poIPKRVquE_DcnDDjIoq-39" value="" style="ellipse;whiteSpace=wrap;html=1;fillColor=#000000;" parent="1" vertex="1">
          <mxGeometry x="450" y="220" width="20" height="20" as="geometry" />
        </mxCell>
      </root>
    </mxGraphModel>
  </diagram>
  <diagram name="FeedingStation" id="Bp8UWVNn7scJLlduRmet">
    <mxGraphModel dx="634" dy="392" grid="1" gridSize="10" guides="1" tooltips="1" connect="1" arrows="1" fold="1" page="1" pageScale="1" pageWidth="850" pageHeight="1100" math="0" shadow="0">
      <root>
        <mxCell id="0" />
        <mxCell id="1" parent="0" />
        <mxCell id="TXwaNQNBizuH_EIqCbw6-4" value="" style="rounded=0;whiteSpace=wrap;html=1;fillColor=#fff2cc;strokeColor=#d6b656;" vertex="1" parent="1">
          <mxGeometry x="235" y="200" width="380" height="60" as="geometry" />
        </mxCell>
        <mxCell id="TXwaNQNBizuH_EIqCbw6-1" value="" style="rounded=0;whiteSpace=wrap;html=1;fillColor=#f8cecc;strokeColor=#b85450;fontStyle=1" vertex="1" parent="1">
          <mxGeometry x="235" y="80" width="380" height="60" as="geometry" />
        </mxCell>
        <mxCell id="TXwaNQNBizuH_EIqCbw6-5" value="" style="rounded=0;whiteSpace=wrap;html=1;fillColor=#d5e8d4;strokeColor=#82b366;" vertex="1" parent="1">
          <mxGeometry x="235" y="260" width="380" height="60" as="geometry" />
        </mxCell>
        <mxCell id="TXwaNQNBizuH_EIqCbw6-2" value="" style="rounded=0;whiteSpace=wrap;html=1;fillColor=#ffe6cc;strokeColor=#d79b00;fontStyle=1" vertex="1" parent="1">
          <mxGeometry x="235" y="140" width="380" height="60" as="geometry" />
        </mxCell>
        <mxCell id="TXwaNQNBizuH_EIqCbw6-3" value="" style="rounded=0;whiteSpace=wrap;html=1;fillColor=#ffe6cc;strokeColor=#d79b00;fontStyle=1" vertex="1" parent="1">
          <mxGeometry x="235" y="140" width="380" height="60" as="geometry" />
        </mxCell>
        <mxCell id="kCqyPBweWHuOV3U7ifN5-3" value="t_LoRaNetwork" style="rounded=1;whiteSpace=wrap;html=1;fillColor=#dae8fc;strokeColor=#6c8ebf;" parent="1" vertex="1">
          <mxGeometry x="270" y="150" width="120" height="40" as="geometry" />
        </mxCell>
        <mxCell id="kCqyPBweWHuOV3U7ifN5-4" value="t_LoRaMAC" style="rounded=1;whiteSpace=wrap;html=1;fillColor=#dae8fc;strokeColor=#6c8ebf;" parent="1" vertex="1">
          <mxGeometry x="365" y="90" width="120" height="40" as="geometry" />
        </mxCell>
        <mxCell id="kCqyPBweWHuOV3U7ifN5-7" value="t_Monitor" style="rounded=1;whiteSpace=wrap;html=1;fillColor=#dae8fc;strokeColor=#6c8ebf;" parent="1" vertex="1">
          <mxGeometry x="440" y="150" width="120" height="40" as="geometry" />
        </mxCell>
        <mxCell id="kCqyPBweWHuOV3U7ifN5-9" value="t_RFID" style="rounded=1;whiteSpace=wrap;html=1;fillColor=#dae8fc;strokeColor=#6c8ebf;" parent="1" vertex="1">
          <mxGeometry x="365" y="210" width="120" height="40" as="geometry" />
        </mxCell>
        <mxCell id="kCqyPBweWHuOV3U7ifN5-13" value="t_Sensors" style="rounded=1;whiteSpace=wrap;html=1;fillColor=#dae8fc;strokeColor=#6c8ebf;" parent="1" vertex="1">
          <mxGeometry x="365" y="270" width="120" height="40" as="geometry" />
        </mxCell>
        <mxCell id="TXwaNQNBizuH_EIqCbw6-12" value="" style="shape=flexArrow;endArrow=classic;html=1;rounded=0;" edge="1" parent="1">
          <mxGeometry width="50" height="50" relative="1" as="geometry">
            <mxPoint x="640" y="320" as="sourcePoint" />
            <mxPoint x="640" y="80" as="targetPoint" />
          </mxGeometry>
        </mxCell>
        <mxCell id="TXwaNQNBizuH_EIqCbw6-13" value="Higher" style="text;html=1;align=center;verticalAlign=middle;resizable=0;points=[];autosize=1;strokeColor=none;fillColor=none;" vertex="1" parent="1">
          <mxGeometry x="660" y="80" width="60" height="30" as="geometry" />
        </mxCell>
        <mxCell id="TXwaNQNBizuH_EIqCbw6-14" value="Lower" style="text;html=1;align=center;verticalAlign=middle;resizable=0;points=[];autosize=1;strokeColor=none;fillColor=none;" vertex="1" parent="1">
          <mxGeometry x="660" y="290" width="60" height="30" as="geometry" />
        </mxCell>
      </root>
    </mxGraphModel>
  </diagram>
</mxfile>
